# xmcd
#
# Track frame offsets:
#	150
#	13750
#	30000
#	46794
#	63978
#	78511
#	89602
#	103688
#	117546
#	130618
#	150075
#	169190
#	181868
#	194661
#	211269
#	226275
#	244478
#	272316
#
# Disc length: 3645 seconds
#
# Revision: 1
# Processed by: cddbd v1.5.2PL0 Copyright (c) Steve Scherf et al.
# Submitted via: audiograbber 1.83.01
#
DISCID=e20e3b12
DTITLE=Chartbusters - Country 500 Vol. 1 d.11
DYEAR=1900
DGENRE=karaoke
TTITLE0=Waylon Jennings - Mammas Don't Let Your Babies Grow Up to Be Cowboys
TTITLE1=The Bellamy Brothers - If I Said You Had a Beautiful Body (Would You Ho
TTITLE1=ld It Against Me)
TTITLE2=Charlie Daniels Band - The Devil Went Down to Georgia
TTITLE3=Conway Twitty - Don't Take It Away
TTITLE4=Crystal Gayle - Why Have You Left the One You Left Me For
TTITLE5=Don Williams - It must be love
TTITLE6=Don Williams - Tulsa Time
TTITLE7=Eddie Rabbit - Every Which Way But Loose
TTITLE8=Ernest Tubb - Walkin' the Floor Over You
TTITLE9=Gene Watson - Farewell Party
TTITLE10=Hank Williams Jr. - Family Tradition
TTITLE11=Larry Gatlin - All the Gold in California
TTITLE12=Moe Bandy - It's a Cheating Situation
TTITLE13=Alabama - Tennessee River
TTITLE14=Anne Murray - Could I have this dance
TTITLE15=Ronnie Milsap - Smoky Mountain rain
TTITLE16=Razzy Bailey - Friends
TTITLE17=Data - Track 
EXTD=
EXTT0=
EXTT1=
EXTT2=
EXTT3=
EXTT4=
EXTT5=
EXTT6=
EXTT7=
EXTT8=
EXTT9=
EXTT10=
EXTT11=
EXTT12=
EXTT13=
EXTT14=
EXTT15=
EXTT16=
EXTT17=
PLAYORDER=
